<svg role="img" aria-label="MongoDB logo" class="leafygreen-ui-l72deg lg-ui-logo-0000" height="32" fill="none" xmlns="http://www.w3.org/2000/svg" viewBox="0 0 16 32"><path d="M10.2503 3.56662C8.90729 1.97316 7.75079 0.354795 7.51452 0.0186734C7.48964 -0.00622447 7.45233 -0.00622447 7.42746 0.0186734C7.19118 0.354795 6.03469 1.97316 4.69165 3.56662C-6.83603 18.2688 6.50725 28.1906 6.50725 28.1906L6.61915 28.2653C6.71864 29.7965 6.96735 32 6.96735 32H7.96219C7.96219 32 8.21091 29.809 8.31039 28.2653L8.4223 28.1782C8.43473 28.1906 21.778 18.2688 10.2503 3.56662ZM7.46477 27.9665C7.46477 27.9665 6.86787 27.4561 6.70621 27.1947V27.1698L7.42746 11.1605C7.42746 11.1107 7.50208 11.1107 7.50208 11.1605L8.22333 27.1698V27.1947C8.06167 27.4561 7.46477 27.9665 7.46477 27.9665Z" fill="#00ED64" data-darkreader-inline-fill="" style="--darkreader-inline-fill: #27ff82;"></path></svg>